<svg width="279" height="273" viewBox="0 0 279 273" fill="none" xmlns="http://www.w3.org/2000/svg">
<g filter="url(#filter0_d_33_1154)">
<circle cx="142.5" cy="132.5" r="132.5" fill="url(#paint0_linear_33_1154)"/>
</g>
<g filter="url(#filter1_d_33_1154)">
<path d="M30.7874 167.32C33.9663 160.229 44.0337 160.229 47.2126 167.32L66.6058 210.582C70.1783 218.552 61.4476 226.427 53.8874 222.055L43.5058 216.05C40.7183 214.438 37.2817 214.438 34.4942 216.05L24.1126 222.055C16.5524 226.427 7.82168 218.552 11.3942 210.582L30.7874 167.32Z" fill="#F9FAFA"/>
</g>
<g filter="url(#filter2_d_33_1154)">
<path d="M127.787 167.32C130.966 160.229 141.034 160.229 144.213 167.32L163.606 210.582C167.178 218.552 158.448 226.427 150.887 222.055L140.506 216.05C137.718 214.438 134.282 214.438 131.494 216.05L121.113 222.055C113.552 226.427 104.822 218.552 108.394 210.582L127.787 167.32Z" fill="#F9FAFA"/>
</g>
<defs>
<filter id="filter0_d_33_1154" x="6" y="0" width="273" height="273" filterUnits="userSpaceOnUse" color-interpolation-filters="sRGB">
<feFlood flood-opacity="0" result="BackgroundImageFix"/>
<feColorMatrix in="SourceAlpha" type="matrix" values="0 0 0 0 0 0 0 0 0 0 0 0 0 0 0 0 0 0 127 0" result="hardAlpha"/>
<feOffset dy="4"/>
<feGaussianBlur stdDeviation="2"/>
<feComposite in2="hardAlpha" operator="out"/>
<feColorMatrix type="matrix" values="0 0 0 0 0 0 0 0 0 0 0 0 0 0 0 0 0 0 0.25 0"/>
<feBlend mode="normal" in2="BackgroundImageFix" result="effect1_dropShadow_33_1154"/>
<feBlend mode="normal" in="SourceGraphic" in2="effect1_dropShadow_33_1154" result="shape"/>
</filter>
<filter id="filter1_d_33_1154" x="6.56906" y="162.002" width="64.8619" height="69.3038" filterUnits="userSpaceOnUse" color-interpolation-filters="sRGB">
<feFlood flood-opacity="0" result="BackgroundImageFix"/>
<feColorMatrix in="SourceAlpha" type="matrix" values="0 0 0 0 0 0 0 0 0 0 0 0 0 0 0 0 0 0 127 0" result="hardAlpha"/>
<feOffset dy="4"/>
<feGaussianBlur stdDeviation="2"/>
<feComposite in2="hardAlpha" operator="out"/>
<feColorMatrix type="matrix" values="0 0 0 0 0 0 0 0 0 0 0 0 0 0 0 0 0 0 0.25 0"/>
<feBlend mode="normal" in2="BackgroundImageFix" result="effect1_dropShadow_33_1154"/>
<feBlend mode="normal" in="SourceGraphic" in2="effect1_dropShadow_33_1154" result="shape"/>
</filter>
<filter id="filter2_d_33_1154" x="103.569" y="162.002" width="64.8619" height="69.3038" filterUnits="userSpaceOnUse" color-interpolation-filters="sRGB">
<feFlood flood-opacity="0" result="BackgroundImageFix"/>
<feColorMatrix in="SourceAlpha" type="matrix" values="0 0 0 0 0 0 0 0 0 0 0 0 0 0 0 0 0 0 127 0" result="hardAlpha"/>
<feOffset dy="4"/>
<feGaussianBlur stdDeviation="2"/>
<feComposite in2="hardAlpha" operator="out"/>
<feColorMatrix type="matrix" values="0 0 0 0 0 0 0 0 0 0 0 0 0 0 0 0 0 0 0.25 0"/>
<feBlend mode="normal" in2="BackgroundImageFix" result="effect1_dropShadow_33_1154"/>
<feBlend mode="normal" in="SourceGraphic" in2="effect1_dropShadow_33_1154" result="shape"/>
</filter>
<linearGradient id="paint0_linear_33_1154" x1="142.5" y1="-9.38773e-07" x2="174" y2="344" gradientUnits="userSpaceOnUse">
<stop offset="0.245364" stop-color="#AB1C6E"/>
<stop offset="0.460865" stop-color="#A55EA3"/>
<stop offset="0.634056" stop-color="#A17EBE"/>
<stop offset="0.878504" stop-color="#A08FCB"/>
</linearGradient>
</defs>
</svg>
